<svg width="1500" height="300" viewBox="0 0 1500 300" fill="none" xmlns="http://www.w3.org/2000/svg">
<path d="M169.697 224.611L86.1667 79.912H253.228L169.697 224.611ZM260.144 62H210.777L205.524 69.8773H133.871L129.381 62H79.2507L66 84.9613L91.0347 128.319H100.125L133.871 186.76L129.059 194.181L154.352 237.995H185.043L209.935 194.875L205.524 186.76L239.269 128.319H248.36L273.395 84.9613L260.144 62Z" fill="#FF2F4B"/>
<path d="M164 91V123.441C164 139.329 165.167 154 165.167 154H173.835C173.835 154 175 139.329 175 123.441V91H164Z" fill="#FF2F4B"/>
<path d="M159.071 169.469C159.071 163.601 163.829 158.842 169.698 158.842C175.567 158.842 180.323 163.601 180.323 169.469C180.323 175.338 175.567 180.096 169.698 180.096C163.829 180.096 159.071 175.338 159.071 169.469Z" fill="#FF2F4B"/>
<path d="M325.935 126.5H347.58V133.845H328.99L326.65 136.25V145.285H340.365V152.63H326.65V172H318.785V133.78L325.935 126.5ZM368.42 126.5H385.775V172H377.91V152.565H364.91V172H357.175V138.135L368.42 126.5ZM364.91 140.41V145.22H377.91V133.845H371.28L364.91 140.41ZM394.719 126.5H426.179V133.845H414.349V164.655H426.179V172H394.719V164.655H406.484V133.845H394.719V126.5ZM433.694 126.5H441.559V161.73L443.574 164.655H457.289V159.91H465.154V172H439.609L433.694 163.03V126.5ZM496.263 126.5H504.128V172H496.263V169.79L492.688 172H478.583L472.668 163.29V126.5H480.533V161.795L482.418 164.655H494.963L496.263 163.355V126.5ZM511.643 126.5H535.498L543.103 137.615V145.22L537.123 151.395L543.103 160.17V172H535.238V161.535L529.323 152.89H522.953L519.508 150.745V172H511.643V126.5ZM519.508 133.845V145.545H532.703L535.238 142.945V139.175L531.533 133.845H519.508ZM556.013 126.5H581.363V133.845H559.003L557.833 135.145V145.35H572.848V152.695H557.833V161.795L559.718 164.655H581.363V172H555.818L549.968 163.29V132.675L556.013 126.5ZM627.332 126.5H661.262V133.845H643.972L648.262 137.68V172H640.397V139.5L638.512 133.845H627.332V126.5ZM673.651 126.5H693.216L698.936 135.21V165.76L693.021 172H673.521L667.606 163.29V132.74L673.651 126.5ZM675.471 161.86L677.356 164.655H689.836L691.071 163.355V136.64L689.186 133.845H676.641L675.471 135.145V161.86ZM745.491 126.5H753.356V161.73L755.371 164.655H769.086V159.91H776.951V172H751.406L745.491 163.03V126.5ZM790.575 126.5H810.14L815.86 135.21V165.76L809.945 172H790.445L784.53 163.29V132.74L790.575 126.5ZM792.395 161.86L794.28 164.655H806.76L807.995 163.355V136.64L806.11 133.845H793.565L792.395 135.145V161.86ZM836.115 126.5H853.47V172H845.605V152.565H832.605V172H824.87V138.135L836.115 126.5ZM832.605 140.41V145.22H845.605V133.845H838.975L832.605 140.41ZM863.065 126.5H885.165L894.525 140.475V165.825L888.61 172H863.065V126.5ZM870.93 133.845V164.72H885.36L886.66 163.42V141.97L881.135 133.845H870.93ZM946.409 126.5H965.779L971.109 134.495L965.909 139.76L961.944 133.845H949.464L948.294 135.08V162.12L949.919 164.655H963.959V151.395H954.794V144.115H968.509L971.759 149.055V172H946.019L940.429 163.615V132.74L946.409 126.5ZM992.013 126.5H1009.37V172H1001.5V152.565H988.503V172H980.768V138.135L992.013 126.5ZM988.503 140.41V145.22H1001.5V133.845H994.873L988.503 140.41ZM1018.38 126.5H1026.24V127.215L1033.07 137.42L1041.91 126.5H1049.77V172H1041.91V137.095L1036.77 143.14V147.235H1031.12V146.195L1026.24 138.915V172H1018.38V126.5ZM1062.68 126.5H1088.03V133.845H1065.67L1064.5 135.145V145.35H1079.52V152.695H1064.5V161.795L1066.39 164.655H1088.03V172H1062.49L1056.64 163.29V132.675L1062.68 126.5ZM1135.3 126.5H1143.17V127.215L1149.99 137.42L1158.83 126.5H1166.7V172H1158.83V137.095L1153.7 143.14V147.235H1148.04V146.195L1143.17 138.915V172H1135.3V126.5ZM1179.61 126.5H1204.96V133.845H1182.6L1181.43 135.145V145.35H1196.44V152.695H1181.43V161.795L1183.31 164.655H1204.96V172H1179.41L1173.56 163.29V132.675L1179.61 126.5ZM1211.95 126.5H1245.88V133.845H1228.59L1232.88 137.68V172H1225.02V139.5L1223.13 133.845H1211.95V126.5ZM1264.84 126.5H1282.19V172H1274.33V152.565H1261.33V172H1253.59V138.135L1264.84 126.5ZM1261.33 140.41V145.22H1274.33V133.845H1267.7L1261.33 140.41ZM1291.79 126.5H1313.89L1323.25 140.475V165.825L1317.33 172H1291.79V126.5ZM1299.65 133.845V164.72H1314.08L1315.38 163.42V141.97L1309.86 133.845H1299.65ZM1342.78 126.5H1360.14V172H1352.27V152.565H1339.27V172H1331.54V138.135L1342.78 126.5ZM1339.27 140.41V145.22H1352.27V133.845H1345.64L1339.27 140.41ZM1367.85 126.5H1401.78V133.845H1384.49L1388.78 137.68V172H1380.91V139.5L1379.03 133.845H1367.85V126.5ZM1420.73 126.5H1438.09V172H1430.22V152.565H1417.22V172H1409.49V138.135L1420.73 126.5ZM1417.22 140.41V145.22H1430.22V133.845H1423.59L1417.22 140.41ZM1456.39 172V159.26H1469.13V172H1456.39Z" fill="#FF2F4B"/>
</svg>
