<svg width="700" height="185" viewBox="0 0 700 185" fill="none" xmlns="http://www.w3.org/2000/svg">
<g clip-path="url(#clip0_7_63)">
<path d="M141.6 40.2L97.6 102.3L53.5 40.2H0L70.8 140H124.3L195.1 40.2H141.6Z" fill="#111114"/>
<path d="M517.2 40.2L473.1 102.3L429.1 40.2H375.6L446.4 140L414.6 184.8H468.1L570.7 40.2H517.2Z" fill="#111114"/>
<path d="M258.6 40.2L329.4 140H382.9L312.1 40.2H258.6Z" fill="#111114"/>
<path d="M370.6 40.2H317.1L387.9 140H441.4L370.6 40.2Z" fill="#111114"/>
<path d="M200.1 40.2L129.3 140H182.8L226.9 78L270.9 140H324.4L253.6 40.2H200.1Z" fill="#111114"/>
<path d="M700 140L629.2 40.2H575.7L504.9 140H558.4L602.4 78L646.5 140H700Z" fill="#111114"/>
<path d="M340.3 35.3L315.3 0H261.7L286.8 35.3H340.3Z" fill="#111114"/>
<path d="M398.8 35.3L373.8 0H320.2L345.3 35.3H398.8Z" fill="#ED0F35"/>
</g>
<defs>
<clipPath id="clip0_7_63">
<rect width="700" height="184.8" fill="white"/>
</clipPath>
</defs>
</svg>
